SplineFontDB: 3.2
FontName: Untitled1
FullName: Untitled1
FamilyName: Untitled1
Weight: Regular
Copyright: Copyright (c) 2023, yasufuminakata
UComments: "2023-5-18: Created with FontForge (http://fontforge.org)"
Version: 001.000
ItalicAngle: 0
UnderlinePosition: -100
UnderlineWidth: 50
Ascent: 800
Descent: 200
InvalidEm: 0
LayerCount: 2
Layer: 0 0 "+gMyXYgAA" 1
Layer: 1 0 "+Uk2XYgAA" 0
XUID: [1021 158 -370738694 2465570]
OS2Version: 0
OS2_WeightWidthSlopeOnly: 0
OS2_UseTypoMetrics: 1
CreationTime: 1684376200
ModificationTime: 1684380293
OS2TypoAscent: 0
OS2TypoAOffset: 1
OS2TypoDescent: 0
OS2TypoDOffset: 1
OS2TypoLinegap: 0
OS2WinAscent: 0
OS2WinAOffset: 1
OS2WinDescent: 0
OS2WinDOffset: 1
HheadAscent: 0
HheadAOffset: 1
HheadDescent: 0
HheadDOffset: 1
OS2Vendor: 'PfEd'
DEI: 91125
Encoding: ISO8859-1
UnicodeInterp: none
NameList: AGL For New Fonts
DisplaySize: -48
AntiAlias: 1
FitToEm: 0
WinInfo: 0 17 8
BeginChars: 256 26

StartChar: a
Encoding: 97 97 0
Width: 827
Flags: HW
LayerCount: 2
Fore
SplineSet
510 392 m 1029
88.125 477.53515625 m 5
 105.30078125 670.616210938 242.284179688 680.236328125 270.370117188 678.80859375 c 4
 293.983398438 680.469726562 376.192382812 678.306640625 427.118164062 633.328125 c 4
 452.556640625 610.860351562 472.5 577.237304688 472.5 517.625 c 6
 472.5 298.25 l 6
 472.5 224.00390625 358.120117188 195.125 279.375 195.125 c 4
 208.27734375 195.125 140.701171875 216.130859375 109.096679688 246.96484375 c 4
 98.1650390625 257.629882812 91.2197265625 268.791992188 88.125 281.67578125 c 5
 88.125 477.53515625 l 5
510.547851562 202.266601562 m 5
 536.333984375 158.96484375 565.931640625 117.688476562 612.71484375 117.688476562 c 4
 663.711914062 117.688476562 707.3203125 161.299804688 817.762695312 271.739257812 c 5
 764.739257812 324.762695312 l 5
 711.346679688 271.369140625 673.206054688 233.517578125 646.80078125 212.556640625 c 4
 624.924804688 195.19140625 613.5234375 192.688476562 612.71484375 192.688476562 c 6
 612.71484375 192.688476562 608.443359375 190.787109375 591.284179688 215.313476562 c 4
 579.744140625 231.814453125 565.389648438 257.0859375 547.247070312 289.680664062 c 4
 547.5 293.946289062 547.5 293.946289062 547.5 579.5 c 5
 540.756835938 579.5 l 5
 503.879882812 739.099609375 334.737304688 757.14453125 269.487304688 753.907226562 c 4
 238.647460938 754.51953125 56.13671875 744.147460938 17.9150390625 517.625 c 5
 13.125 517.625 l 5
 13.125 479.327148438 l 6
 11.89453125 464.703125 11.25 449.35546875 11.25 433.25 c 5
 13.125 433.25 l 5
 13.125 298.25 l 5
 11.25 298.25 l 5
 11.25 192.552734375 122.211914062 120.125 279.375 120.125 c 4
 326.490234375 120.125 445.125 127.959960938 510.547851562 202.266601562 c 5
268.30859375 678.9140625 m 5
 268.303710938 678.9140625 268.30859375 678.9140625 268.30859375 678.9140625 c 5
EndSplineSet
EndChar

StartChar: b
Encoding: 98 98 1
Width: 480
Flags: HW
LayerCount: 2
Fore
SplineSet
234.09765625 533.248046875 m 0
 210.701171875 533.248046875 135.265625 533.248046875 77.5 467.318359375 c 1
 77.5 768.5 l 1
 17.5 768.5 l 1
 17.5 18.5 l 1
 77.5 18.5 l 1
 77.5 65.5703125 l 1
 191.953125 -10.296875 446.5 21.365234375 446.5 168.5 c 2
 446.5 344 l 2
 446.5 482.618164062 335.7578125 533.248046875 234.09765625 533.248046875 c 0
232 86 m 0
 168.997070312 86 77.5 109.106445312 77.5 168.5 c 2
 77.5 276.5 l 2
 77.5 389.662109375 119.303710938 434.009765625 155.15625 454.548828125 c 0
 155.78125 454.908203125 190.741210938 474.677734375 224.795898438 472.9453125 c 0
 243.686523438 474.274414062 309.453125 472.544921875 350.193359375 436.5625 c 0
 370.544921875 418.586914062 386.5 391.689453125 386.5 344 c 2
 386.5 168.5 l 2
 386.5 109.1015625 294.99609375 86 232 86 c 0
223.146484375 473.03125 m 1
 223.142578125 473.03125 223.146484375 473.03125 223.146484375 473.03125 c 1
EndSplineSet
EndChar

StartChar: c
Encoding: 99 99 2
Width: 694
Flags: HW
LayerCount: 2
Fore
SplineSet
20.265625 203.5 m 1
 34.1328125 84.5986328125 166.068359375 8 344 8 c 0
 535.9375 8 672.325195312 96.7021484375 672.325195312 226.5 c 1
 580.325195312 226.5 l 1
 580.325195312 135.490234375 440.258789062 100 344 100 c 0
 266.805664062 100 111.116210938 126.241210938 111.116210938 225.563476562 c 1
 108.825195312 225.610351562 l 1
 108.825195312 446.421875 l 1
 129.893554688 683.267578125 297.92578125 695.068359375 332.37890625 693.31640625 c 0
 361.34375 695.353515625 462.186523438 692.701171875 524.655273438 637.528320312 c 0
 555.860351562 609.965820312 580.325195312 568.723632812 580.325195312 495.599609375 c 1
 672.325195312 495.599609375 l 1
 672.325195312 736.928710938 455.962890625 791.62109375 331.295898438 785.4375 c 0
 293.46484375 786.190429688 69.5859375 773.465820312 22.7001953125 495.599609375 c 1
 16.8251953125 495.599609375 l 1
 16.8251953125 448.620117188 l 2
 15.3154296875 430.680664062 14.5244140625 411.854492188 14.5244140625 392.099609375 c 1
 16.8251953125 392.099609375 l 1
 16.8251953125 203.5 l 1
 20.265625 203.5 l 1
329.849609375 693.447265625 m 1
 329.842773438 693.447265625 329.849609375 693.447265625 329.849609375 693.447265625 c 1
EndSplineSet
EndChar

StartChar: d
Encoding: 100 100 3
Width: 517
Flags: HW
LayerCount: 2
Fore
SplineSet
40.65625 177.951171875 m 2
 40.65625 30.814453125 295.205078125 -0.8447265625 409.65625 75.021484375 c 1
 409.65625 27.951171875 l 1
 469.65625 27.951171875 l 1
 469.65625 777.951171875 l 1
 409.65625 777.951171875 l 1
 409.65625 476.76953125 l 1
 394.857421875 493.658203125 378.44140625 506.544921875 361.76171875 516.099609375 c 0
 349.91796875 522.884765625 310.0859375 543.41015625 263.06640625 542.4765625 c 0
 181.775390625 546.508789062 40.65625 510.849609375 40.65625 353.451171875 c 2
 40.65625 177.951171875 l 2
255.15625 95.451171875 m 0
 192.153320312 95.451171875 100.65625 118.557617188 100.65625 177.951171875 c 2
 100.65625 353.451171875 l 2
 100.65625 385.314453125 105.90625 452.1015625 196.0546875 475.517578125 c 0
 198.576171875 476.172851562 231.64453125 484.556640625 262.360351562 482.396484375 c 0
 263.080078125 482.43359375 297.30859375 483.875 332 464 c 0
 367.852539062 443.4609375 409.65625 399.11328125 409.65625 285.951171875 c 2
 409.65625 177.951171875 l 2
 409.65625 118.552734375 318.15234375 95.451171875 255.15625 95.451171875 c 0
264.009765625 482.482421875 m 1
 264.009765625 482.482421875 264.024414062 482.482421875 264.009765625 482.482421875 c 1
EndSplineSet
EndChar

StartChar: e
Encoding: 101 101 4
Width: 705
Flags: HW
LayerCount: 2
Fore
SplineSet
342.427734375 97.462890625 m 0
 266.912109375 97.462890625 114.606445312 123.1328125 114.606445312 220.295898438 c 1
 112.365234375 220.341796875 l 1
 112.365234375 436.454101562 112.365234375 436.454101562 112.650390625 439.462890625 c 1
 674.865234375 439.462890625 l 1
 674.865234375 529.462890625 l 1
 660.774414062 529.462890625 l 1
 633.451171875 738.9140625 426.61328125 772.791992188 330 768 c 0
 292.991210938 768.736328125 73.978515625 756.288085938 28.11328125 484.462890625 c 1
 22.365234375 484.462890625 l 1
 22.365234375 438.50390625 l 2
 20.888671875 420.955078125 20.115234375 402.537109375 20.115234375 383.212890625 c 1
 22.365234375 383.212890625 l 1
 22.365234375 198.712890625 l 1
 25.7314453125 198.712890625 l 1
 39.296875 82.3955078125 168.365234375 7.462890625 342.427734375 7.462890625 c 0
 530.193359375 7.462890625 663.615234375 94.236328125 663.615234375 221.212890625 c 1
 573.615234375 221.212890625 l 1
 573.615234375 132.181640625 436.59375 97.462890625 342.427734375 97.462890625 c 0
131.12109375 529.462890625 m 1
 180.001953125 671.583984375 306.341796875 679.137695312 331.05859375 677.880859375 c 0
 336.0859375 678.234375 541.506835938 691.673828125 569.962890625 529.462890625 c 1
 131.12109375 529.462890625 l 1
328.584960938 678.008789062 m 1
 328.578125 678.008789062 328.584960938 678.008789062 328.584960938 678.008789062 c 1
EndSplineSet
EndChar

StartChar: g
Encoding: 103 103 5
Width: 501
Flags: HW
LayerCount: 2
Fore
SplineSet
254.103515625 712.090820312 m 4
 320.256835938 712.090820312 416.328125 687.829101562 416.328125 625.465820312 c 6
 416.328125 512.065429688 l 6
 416.328125 393.245117188 372.434570312 346.680664062 334.7890625 325.114257812 c 4
 334.1328125 324.737304688 297.424804688 303.978515625 261.66796875 305.797851562 c 4
 241.833007812 304.40234375 172.77734375 306.21875 130 344 c 4
 108.630859375 362.874023438 91.87890625 391.1171875 91.87890625 441.190429688 c 6
 91.87890625 625.465820312 l 6
 91.87890625 687.833984375 187.958007812 712.090820312 254.103515625 712.090820312 c 4
254.103515625 775.090820312 m 4
 122.077148438 775.090820312 28.87890625 714.24609375 28.87890625 625.465820312 c 6
 28.87890625 441.190429688 l 6
 28.87890625 275.932617188 177.0390625 238.48046875 262.409179688 242.713867188 c 4
 277.84765625 242.40625 357.259765625 244.291015625 416.328125 311.706054688 c 5
 416.328125 140.365234375 l 6
 416.328125 86.6982421875 323.124023438 63.1904296875 255.28515625 63.1904296875 c 4
 195.493164062 63.1904296875 138.005859375 79.6689453125 111.057617188 103.564453125 c 4
 97.97265625 115.16796875 92.1796875 126.82421875 91.8701171875 141.0625 c 5
 28.88671875 139.693359375 l 5
 30.6845703125 56.970703125 122.592773438 0.1904296875 255.28515625 0.1904296875 c 4
 324.072265625 0.1904296875 395.369140625 15.8515625 440.4609375 56.6220703125 c 4
 463.430664062 77.390625 457.328125 96.6884765625 457.328125 130.815429688 c 6
 457.328125 615.916015625 l 6
 457.328125 704.702148438 386.120117188 775.090820312 254.103515625 775.090820312 c 4
263.399414062 305.708007812 m 5
 263.404296875 305.708007812 263.399414062 305.708007812 263.399414062 305.708007812 c 5
EndSplineSet
EndChar

StartChar: h
Encoding: 104 104 6
Width: 480
Flags: HW
LayerCount: 2
Fore
SplineSet
243.59765625 548.748046875 m 0
 220.201171875 548.748046875 144.765625 548.748046875 87 482.818359375 c 1
 87 784 l 1
 27 784 l 1
 27 34 l 1
 87 34 l 1
 87 292 l 2
 87 405.162109375 128.803710938 449.509765625 164.65625 470.048828125 c 0
 165.28125 470.408203125 200.241210938 490.177734375 234.295898438 488.4453125 c 0
 253.186523438 489.774414062 318.953125 488.044921875 359.693359375 452.0625 c 0
 380.044921875 434.086914062 396 407.189453125 396 359.5 c 2
 396 34 l 1
 456 34 l 1
 456 359.5 l 2
 456 498.118164062 345.2578125 548.748046875 243.59765625 548.748046875 c 0
232.646484375 488.53125 m 1
 232.642578125 488.53125 232.646484375 488.53125 232.646484375 488.53125 c 1
EndSplineSet
EndChar

StartChar: i
Encoding: 105 105 7
Width: 362
Flags: HW
LayerCount: 2
Fore
SplineSet
191 657 m 2
 191 697 l 1
 180.283203125 697 l 1
 166.443359375 720.904296875 140.587890625 737 111 737 c 0
 66.845703125 737 31 701.154296875 31 657 c 0
 31 612.845703125 66.845703125 577 111 577 c 0
 155.154296875 577 191 612.845703125 191 657 c 2
185.587890625 85.90625 m 1
 170.4140625 106.65234375 151 172.552734375 151 301 c 2
 151 415 l 1
 71 415 l 1
 71 257 l 1
 71.671875 257 l 1
 74.6875 162.630859375 87.916015625 95.34375 112.6640625 51.908203125 c 0
 152.865234375 -18.6484375 279.48046875 -66.677734375 342.416015625 294.162109375 c 1
 263.595703125 307.908203125 l 1
 254.8359375 257.6875 228.654296875 128.076171875 185.587890625 85.90625 c 1
EndSplineSet
EndChar

StartChar: j
Encoding: 106 106 8
Width: 362
Flags: HW
LayerCount: 2
Fore
SplineSet
340 686 m 2
 340 726 l 1
 329.283203125 726 l 1
 315.443359375 749.904296875 289.587890625 766 260 766 c 0
 215.845703125 766 180 730.154296875 180 686 c 0
 180 641.845703125 215.845703125 606 260 606 c 0
 304.154296875 606 340 641.845703125 340 686 c 2
193.5 32 m 0
 290.36328125 32 297.640625 215.83203125 299.458984375 286 c 1
 300 286 l 1
 300 444 l 1
 220 444 l 1
 220 271.703125 220 211.130859375 203.330078125 148.38671875 c 0
 199.060546875 132.314453125 194.177734375 122 190.837890625 116.1796875 c 1
 148.76171875 156.59375 110.474609375 272.169921875 90.416015625 341.171875 c 1
 13.58203125 318.8359375 l 1
 86.623046875 67.572265625 150.810546875 32 193.5 32 c 0
EndSplineSet
EndChar

StartChar: k
Encoding: 107 107 9
Width: 436
Flags: HW
LayerCount: 2
Fore
SplineSet
23 39.80859375 m 1
 83 39.80859375 l 1
 83 204.078125 l 1
 328.791992188 15.9716796875 l 1
 328.791992188 15.9716796875 365.251953125 63.6123046875 365.208007812 63.646484375 c 0
 118.05078125 252.796875 118.05078125 252.796875 118.05078125 252.796875 c 1
 400.530273438 336.541015625 l 1
 383.473632812 394.077148438 l 1
 83 305 l 1
 83 789.80859375 l 1
 23 789.80859375 l 1
 23 39.80859375 l 1
EndSplineSet
EndChar

StartChar: l
Encoding: 108 108 10
Width: 185
Flags: HW
LayerCount: 2
Fore
SplineSet
60 16 m 5
 114 16 l 5
 114 691 l 5
 60 691 l 5
 60 16 l 5
EndSplineSet
EndChar

StartChar: m
Encoding: 109 109 11
Width: 1000
Flags: H
LayerCount: 2
Fore
SplineSet
221.44921875 535.165039062 m 0
 188.982421875 535.165039062 152.670898438 525.682617188 124 492.962890625 c 1
 124 521 l 1
 84 521 l 1
 84 192 l 1
 124 192 l 1
 124 364 l 2
 124 439.779296875 150.912109375 469.392578125 173.475585938 482.890625 c 0
 173.8671875 483.125 195.60546875 496.107421875 217.484375 494.9453125 c 0
 217.856445312 494.983398438 236.470703125 496.85546875 253.879882812 486.44921875 c 0
 268.657226562 477.616210938 286 458.986328125 286 409 c 2
 286 192 l 1
 326 192 l 1
 326 409 l 2
 326 410.251953125 332.315429688 495 417 495 c 0
 443.780273438 495 467.668945312 485.251953125 479.935546875 452.375 c 0
 480.081054688 451.985351562 487.747070312 430.598632812 487 411.390625 c 2
 487 192 l 1
 527 192 l 1
 527 557.423828125 527.024414062 410.610351562 527.024414062 412.819335938 c 0
 527.024414062 462.27734375 501.911132812 535 417 535 c 0
 397.404296875 535 345.28125 532.154296875 310.68359375 481.260742188 c 1
 301.259765625 499.60546875 288.333007812 512.456054688 274.359375 520.80859375 c 0
 252.750976562 533.725585938 231.5625 535.165039062 221.44921875 535.165039062 c 0
487.012695312 411.723632812 m 1
 487.012695312 411.723632812 l 1
 487.014648438 411.73828125 487.012695312 411.723632812 487.012695312 411.723632812 c 1
216.065429688 495.021484375 m 1
 216.057617188 495.0234375 216.065429688 495.021484375 216.065429688 495.021484375 c 1
EndSplineSet
EndChar

StartChar: n
Encoding: 110 110 12
Width: 1000
Flags: H
LayerCount: 2
Fore
SplineSet
228.3984375 535.165039062 m 0
 212.80078125 535.165039062 162.510742188 535.165039062 124 491.211914062 c 1
 124 521 l 1
 84 521 l 1
 84 192 l 1
 124 192 l 1
 124 364 l 2
 124 439.44140625 151.869140625 469.006835938 175.770507812 482.69921875 c 0
 176.1875 482.938476562 199.494140625 496.118164062 222.197265625 494.963867188 c 0
 234.791015625 495.849609375 278.635742188 494.696289062 305.795898438 470.708007812 c 0
 319.36328125 458.724609375 330 440.79296875 330 409 c 2
 330 192 l 1
 370 192 l 1
 370 409 l 2
 370 501.412109375 296.171875 535.165039062 228.3984375 535.165039062 c 0
221.09765625 495.020507812 m 1
 221.094726562 495.020507812 221.09765625 495.020507812 221.09765625 495.020507812 c 1
EndSplineSet
EndChar

StartChar: o
Encoding: 111 111 13
Width: 1000
Flags: H
LayerCount: 2
Fore
SplineSet
125 387.618164062 m 1
 134.16015625 490.594726562 207.217773438 495.725585938 222.197265625 494.963867188 c 0
 234.791015625 495.849609375 278.635742188 494.696289062 305.795898438 470.708007812 c 0
 319.36328125 458.724609375 330 440.79296875 330 409 c 2
 330 292 l 2
 330 252.401367188 268.997070312 237 227 237 c 0
 189.081054688 237 153.040039062 248.203125 136.184570312 264.647460938 c 0
 130.354492188 270.3359375 126.650390625 276.2890625 125 283.16015625 c 1
 125 387.618164062 l 1
84 292 m 1
 84 235.627929688 143.1796875 197 227 197 c 0
 271.081054688 197 317.040039062 208.018554688 345.740234375 236.01953125 c 0
 358.115234375 248.092773438 366.954101562 263.787109375 369.349609375 282 c 1
 370 282 l 1
 370 409 l 2
 370 513.92578125 275.9296875 537.705078125 221.7265625 535.016601562 c 0
 205.278320312 535.34375 107.939453125 529.811523438 87.5546875 409 c 1
 85 409 l 1
 85 388.57421875 l 2
 84.34375 380.774414062 84 372.588867188 84 364 c 1
 85 364 l 1
 85 292 l 1
 84 292 l 1
221.09765625 495.020507812 m 1
 221.094726562 495.020507812 221.09765625 495.020507812 221.09765625 495.020507812 c 1
EndSplineSet
EndChar

StartChar: p
Encoding: 112 112 14
Width: 1000
Flags: H
LayerCount: 2
Fore
SplineSet
221.7265625 256.983398438 m 0
 275.920898438 254.294921875 370 278.067382812 370 383 c 2
 370 500 l 2
 370 556.372070312 310.8203125 595 227 595 c 0
 143.173828125 595 84 556.368164062 84 500 c 2
 84 100 l 1
 124 100 l 1
 124 300.788085938 l 1
 133.866210938 289.528320312 144.809570312 280.9375 155.9296875 274.567382812 c 0
 163.825195312 270.043945312 190.379882812 256.360351562 221.7265625 256.983398438 c 0
227 555 m 0
 269.001953125 555 330 539.595703125 330 500 c 2
 330 383 l 2
 330 361.7578125 326.5 317.233398438 266.401367188 301.622070312 c 0
 264.719726562 301.185546875 242.674804688 295.596679688 222.197265625 297.036132812 c 0
 221.717773438 297.01171875 198.8984375 296.05078125 175.770507812 309.30078125 c 0
 151.869140625 322.993164062 124 352.55859375 124 428 c 2
 124 500 l 2
 124 539.598632812 185.002929688 555 227 555 c 0
221.09765625 296.979492188 m 1
 221.09765625 296.979492188 221.087890625 296.979492188 221.09765625 296.979492188 c 1
EndSplineSet
EndChar

StartChar: q
Encoding: 113 113 15
Width: 1000
Flags: H
LayerCount: 2
Fore
SplineSet
421 555 m 0
 463.001953125 555 524 539.595703125 524 500 c 2
 524 428 l 2
 524 352.55859375 496.130859375 322.993164062 472.229492188 309.30078125 c 0
 471.8125 309.061523438 448.505859375 295.881835938 425.802734375 297.036132812 c 0
 413.208984375 296.150390625 369.364257812 297.303710938 342.204101562 321.291992188 c 0
 328.63671875 333.275390625 318 351.20703125 318 383 c 2
 318 500 l 2
 318 539.598632812 379.002929688 555 421 555 c 0
421 595 m 0
 337.173828125 595 278 556.368164062 278 500 c 2
 278 383 l 2
 278 278.07421875 372.0703125 254.294921875 426.2734375 256.983398438 c 0
 436.075195312 256.788085938 486.49609375 257.984375 524 300.788085938 c 1
 524 100 l 1
 564 100 l 1
 564 500 l 2
 564 556.372070312 504.8203125 595 421 595 c 0
426.90234375 296.979492188 m 1
 426.905273438 296.979492188 426.90234375 296.979492188 426.90234375 296.979492188 c 1
EndSplineSet
EndChar

StartChar: r
Encoding: 114 114 16
Width: 1000
Flags: H
LayerCount: 2
Fore
SplineSet
232.950195312 534.977539062 m 1
 229.125976562 535.157226562 167.65625 537.234375 124 488.1796875 c 1
 124 521 l 1
 84 521 l 1
 84 192 l 1
 124 192 l 1
 124 364 l 2
 124 412.674804688 137.18359375 459.540039062 180.411132812 482.369140625 c 0
 180.873046875 482.61328125 206.91015625 495.934570312 231.077148438 495.021484375 c 1
 232.950195312 534.977539062 l 1
EndSplineSet
EndChar

StartChar: s
Encoding: 115 115 17
Width: 1000
Flags: H
LayerCount: 2
Fore
SplineSet
234.103515625 497.733398438 m 0
 275.5078125 497.733398438 330 483.244140625 330 452 c 1
 370 452 l 1
 370 501.555664062 316.579101562 537.733398438 234.103515625 537.733398438 c 0
 147.92578125 537.733398438 84 497.853515625 84 437 c 1
 90.6640625 437 l 1
 324.547851562 189.806640625 l 1
 308.8046875 161.204101562 260.344726562 146.8125 217.759765625 146.8125 c 0
 177.184570312 146.8125 124 161.115234375 124 192 c 1
 84 192 l 1
 84 142.9609375 136.373046875 106.8125 217.759765625 106.8125 c 0
 263.921875 106.8125 313.532226562 119.004882812 344.276367188 150.211914062 c 0
 359.869140625 166.0390625 370 187.21484375 370 212 c 1
 358.604492188 212 l 1
 128.22265625 455.494140625 l 1
 142.244140625 483.137695312 190.686523438 497.733398438 234.103515625 497.733398438 c 0
EndSplineSet
EndChar

StartChar: t
Encoding: 116 116 18
Width: 1000
Flags: H
LayerCount: 2
Fore
SplineSet
161.840820312 211.87890625 m 1
 156.711914062 212.357421875 124 235.395507812 124 364 c 2
 124 389 l 1
 170 389 l 1
 170 429 l 1
 124 429 l 1
 124 521 l 1
 84 521 l 1
 84 429 l 1
 30 429 l 1
 30 389 l 1
 84 389 l 1
 84 342 l 1
 84.3095703125 342 l 1
 86.1806640625 277.423828125 98.0693359375 199.069335938 142.46875 176.713867188 c 0
 150.815429688 172.510742188 157.443359375 172 160 172 c 1
 160 212 l 1
 161.840820312 211.87890625 l 1
161.866210938 211.876953125 m 1
 161.866210938 211.876953125 161.858398438 211.87890625 161.866210938 211.876953125 c 1
EndSplineSet
EndChar

StartChar: u
Encoding: 117 117 19
Width: 1000
Flags: H
LayerCount: 2
Fore
SplineSet
104 364 m 1025
84 292 m 1
 84 193.909179688 253.69921875 172.802734375 330 223.379882812 c 1
 330 192 l 1
 370 192 l 1
 370 452 l 1
 330 452 l 1
 330 292 l 2
 330 252.401367188 268.997070312 237 227 237 c 0
 189.081054688 237 153.040039062 248.203125 136.184570312 264.647460938 c 0
 130.354492188 270.3359375 126.650390625 276.2890625 125 283.16015625 c 1
 125 452 l 1
 85 452 l 1
 85 292 l 1
 84 292 l 1
EndSplineSet
EndChar

StartChar: v
Encoding: 118 118 20
Width: 1000
Flags: H
LayerCount: 2
Fore
SplineSet
219.203125 182.870117188 m 1
 227 186.858398438 l 1
 229.599609375 185.563476562 232.251953125 184.102539062 234.817382812 182.912109375 c 1
 240.322265625 193.673828125 l 1
 254.817382812 201.087890625 l 1
 249.466796875 211.548828125 l 1
 367.817382812 442.912109375 l 1
 332.203125 461.129882812 l 1
 227 255.46875 l 1
 121.796875 461.129882812 l 1
 86.1826171875 442.912109375 l 1
 204.533203125 211.548828125 l 1
 199.182617188 201.087890625 l 1
 213.677734375 193.673828125 l 1
 213.677734375 193.673828125 219.182617188 182.912109375 219.203125 182.870117188 c 1
EndSplineSet
EndChar

StartChar: w
Encoding: 119 119 21
Width: 1000
Flags: H
LayerCount: 2
Fore
SplineSet
431.333984375 184.807617188 m 2
 449.987304688 191.982421875 l 1
 467.990234375 183.2578125 l 1
 594.008789062 443.296875 l 1
 558.009765625 460.7421875 l 1
 452.114257812 242.227539062 l 1
 368.666015625 459.192382812 l 1
 350.014648438 452.018554688 l 1
 332.203125 461.129882812 l 1
 227 255.46875 l 1
 121.796875 461.129882812 l 1
 86.1826171875 442.912109375 l 1
 204.533203125 211.548828125 l 1
 199.182617188 201.087890625 l 1
 213.677734375 193.673828125 l 1
 219.203125 182.870117188 l 1
 227 186.858398438 l 1
 229.599609375 185.563476562 232.251953125 184.102539062 234.817382812 182.912109375 c 1
 240.322265625 193.673828125 l 1
 254.817382812 201.087890625 l 1
 249.466796875 211.548828125 l 1
 347.408203125 403.014648438 l 1
 347.408203125 403.014648438 431.325195312 184.830078125 431.333984375 184.807617188 c 2
EndSplineSet
EndChar

StartChar: x
Encoding: 120 120 22
Width: 1000
Flags: H
LayerCount: 2
Fore
SplineSet
335.471679688 178.259765625 m 1
 364.528320312 205.740234375 l 1
 254.528320312 322 l 1
 364.528320312 438.259765625 l 1
 335.477539062 465.74609375 l 1
 227 351.094726562 l 1
 118.528320312 465.740234375 l 1
 89.4716796875 438.259765625 l 1
 199.471679688 322 l 1
 89.4716796875 205.740234375 l 1
 118.522460938 178.25390625 l 1
 227 292.905273438 l 1
 335.471679688 178.259765625 l 1
EndSplineSet
EndChar

StartChar: y
Encoding: 121 121 23
Width: 1000
Flags: H
LayerCount: 2
Fore
SplineSet
89.4716796875 205.740234375 m 1
 118.522460938 178.25390625 l 1
 364.528320312 438.259765625 l 1
 335.477539062 465.74609375 l 1
 227 351.094726562 l 1
 118.528320312 465.740234375 l 1
 89.4716796875 438.259765625 l 1
 199.471679688 322 l 1
 89.4716796875 205.740234375 l 1
EndSplineSet
EndChar

StartChar: z
Encoding: 122 122 24
Width: 1000
Flags: H
LayerCount: 2
Fore
SplineSet
104 172 m 1
 350 172 l 1
 350 212 l 1
 150.451171875 212 l 1
 364.528320312 438.259765625 l 1
 350 452.005859375 l 1
 350 472 l 1
 104 472 l 1
 104 432 l 1
 303.548828125 432 l 1
 89.4716796875 205.740234375 l 1
 104 191.994140625 l 1
 104 172 l 1
EndSplineSet
EndChar

StartChar: period
Encoding: 46 46 25
Width: 1000
Flags: H
LayerCount: 2
Fore
SplineSet
584 100 m 2
 584 120 l 1
 578.641601562 120 l 1
 571.721679688 131.952148438 558.793945312 140 544 140 c 0
 521.922851562 140 504 122.077148438 504 100 c 0
 504 77.9228515625 521.922851562 60 544 60 c 0
 566.077148438 60 584 77.9228515625 584 100 c 2
EndSplineSet
EndChar
